<svg width="540" height="431" viewBox="0 0 540 431" fill="none" xmlns="http://www.w3.org/2000/svg">
<path d="M124.34 298.277L166.149 229.981L72.5167 168.135L24.1628 247.122L101.608 298.277H124.34Z" fill="#F0F0F0"/>
<path d="M183.587 319.583H80.0249V297.928H183.587V319.583ZM81.3699 318.186H182.242V299.325H81.3699V318.186Z" fill="#3F3D56"/>
<path d="M170.809 315.741C174.523 315.741 177.534 312.613 177.534 308.755C177.534 304.897 174.523 301.77 170.809 301.77C167.095 301.77 164.085 304.897 164.085 308.755C164.085 312.613 167.095 315.741 170.809 315.741Z" fill="#14ABDE"/>
<path d="M151.98 315.741C155.694 315.741 158.705 312.613 158.705 308.755C158.705 304.897 155.694 301.77 151.98 301.77C148.266 301.77 145.255 304.897 145.255 308.755C145.255 312.613 148.266 315.741 151.98 315.741Z" fill="#14ABDE"/>
<path d="M133.151 315.741C136.865 315.741 139.875 312.613 139.875 308.755C139.875 304.897 136.865 301.77 133.151 301.77C129.437 301.77 126.426 304.897 126.426 308.755C126.426 312.613 129.437 315.741 133.151 315.741Z" fill="#14ABDE"/>
<path d="M114.321 315.741C118.035 315.741 121.046 312.613 121.046 308.755C121.046 304.897 118.035 301.77 114.321 301.77C110.607 301.77 107.597 304.897 107.597 308.755C107.597 312.613 110.607 315.741 114.321 315.741Z" fill="#14ABDE"/>
<path d="M95.4919 315.741C99.2059 315.741 102.217 312.613 102.217 308.755C102.217 304.897 99.2059 301.77 95.4919 301.77C91.7779 301.77 88.7671 304.897 88.7671 308.755C88.7671 312.613 91.7779 315.741 95.4919 315.741Z" fill="#14ABDE"/>
<path d="M306.65 78.9352V25.846H332.204V0H207.123V129.929H314.047V117.225C314.047 114.857 314.496 112.512 315.369 110.325C316.241 108.137 317.52 106.149 319.132 104.474C320.744 102.8 322.658 101.472 324.764 100.566C326.87 99.6593 329.127 99.1929 331.407 99.1929H332.204V78.9352H306.65Z" fill="#F0F0F0"/>
<path d="M445.181 335.3H361.793V353.462H445.181V335.3Z" fill="#14ABDE"/>
<path d="M463.337 245.887H340.947V262.652H463.337V245.887Z" fill="#F0F0F0"/>
<path d="M523.188 429.603H0V431H523.188V429.603Z" fill="#3F3D56"/>
<path d="M484.309 431H331.407C326.626 430.994 322.043 429.019 318.662 425.508C315.282 421.996 313.38 417.235 313.375 412.269V117.225C313.38 112.259 315.282 107.498 318.662 103.987C322.043 100.475 326.626 98.5 331.407 98.4943H484.309C489.09 98.5 493.673 100.475 497.054 103.987C500.434 107.498 502.336 112.259 502.341 117.225V412.269C502.336 417.235 500.434 421.996 497.054 425.508C493.673 429.019 489.09 430.994 484.309 431ZM331.407 99.8914C326.983 99.8966 322.741 101.725 319.613 104.974C316.484 108.224 314.725 112.63 314.72 117.225V412.269C314.725 416.865 316.484 421.271 319.613 424.52C322.741 427.77 326.983 429.598 331.407 429.603H484.309C488.733 429.598 492.975 427.77 496.103 424.52C499.232 421.271 500.991 416.865 500.996 412.269V117.225C500.991 112.63 499.232 108.224 496.103 104.974C492.975 101.725 488.733 99.8966 484.309 99.8914H331.407Z" fill="#3F3D56"/>
<path d="M389.701 112.465C388.903 112.465 388.123 112.219 387.459 111.759C386.796 111.298 386.279 110.644 385.973 109.878C385.668 109.112 385.588 108.269 385.744 107.456C385.899 106.643 386.284 105.896 386.848 105.31C387.412 104.724 388.131 104.325 388.914 104.163C389.697 104.001 390.508 104.084 391.245 104.402C391.982 104.719 392.613 105.256 393.056 105.945C393.499 106.635 393.736 107.445 393.736 108.274C393.735 109.385 393.309 110.45 392.553 111.236C391.796 112.022 390.771 112.464 389.701 112.465ZM389.701 105.48C389.169 105.48 388.649 105.644 388.207 105.951C387.764 106.258 387.42 106.694 387.216 107.205C387.012 107.715 386.959 108.277 387.063 108.819C387.167 109.361 387.423 109.859 387.799 110.25C388.175 110.64 388.655 110.907 389.176 111.014C389.698 111.122 390.239 111.067 390.731 110.855C391.222 110.644 391.642 110.286 391.938 109.826C392.233 109.367 392.391 108.827 392.391 108.274C392.39 107.533 392.107 106.823 391.602 106.299C391.098 105.775 390.414 105.481 389.701 105.48Z" fill="#3F3D56"/>
<path d="M429.377 107.575H399.788V108.972H429.377V107.575Z" fill="#3F3D56"/>
<path d="M490.237 118.752V174.635C475.969 174.635 462.285 168.747 452.196 158.267C442.107 147.787 436.439 133.573 436.438 118.752H490.237Z" fill="#14ABDE"/>
<path d="M490.909 412.139H324.807V118.053H490.909V412.139ZM326.152 410.742H489.564V119.451H326.152V410.742Z" fill="#3F3D56"/>
<path opacity="0.1" d="M451.233 171.143C461.261 171.143 469.39 162.698 469.39 152.282C469.39 141.866 461.261 133.421 451.233 133.421C441.205 133.421 433.076 141.866 433.076 152.282C433.076 162.698 441.205 171.143 451.233 171.143Z" fill="black"/>
<path d="M448.543 173.238C458.571 173.238 466.7 164.794 466.7 154.378C466.7 143.961 458.571 135.517 448.543 135.517C438.515 135.517 430.386 143.961 430.386 154.378C430.386 164.794 438.515 173.238 448.543 173.238Z" fill="#14ABDE"/>
<path d="M357.758 129.929H332.204V139.708H357.758V129.929Z" fill="#3F3D56"/>
<path d="M371.88 222.835H346.326V232.614H371.88V222.835Z" fill="#3F3D56"/>
<path d="M470.062 259.159H346.326V240.997H470.062V259.159ZM347.671 257.762H468.717V242.394H347.671V257.762Z" fill="#3F3D56"/>
<path d="M463.337 298.976H340.947V315.741H463.337V298.976Z" fill="#F0F0F0"/>
<path d="M371.88 275.924H346.326V285.703H371.88V275.924Z" fill="#3F3D56"/>
<path d="M470.062 312.248H346.326V294.086H470.062V312.248ZM347.671 310.851H468.717V295.483H347.671V310.851Z" fill="#3F3D56"/>
<path d="M450.56 349.271H365.828V329.711H450.56V349.271ZM367.173 347.874H449.215V331.109H367.173V347.874Z" fill="#3F3D56"/>
<path d="M466.7 252.173C466.7 253.611 466.272 255.014 465.476 256.191C464.68 257.367 463.553 258.26 462.251 258.746C460.948 259.233 459.532 259.29 458.197 258.91C456.862 258.53 455.672 257.732 454.79 256.623L454.784 256.616C454.141 255.806 453.682 254.856 453.441 253.836C453.201 252.817 453.184 251.754 453.393 250.727C453.603 249.7 454.032 248.735 454.65 247.904C455.267 247.073 456.057 246.398 456.961 245.928C457.864 245.457 458.858 245.205 459.869 245.189C460.879 245.173 461.88 245.393 462.797 245.834C463.714 246.276 464.524 246.926 465.166 247.736C465.808 248.547 466.265 249.498 466.505 250.518C466.505 250.519 466.505 250.52 466.505 250.521C466.506 250.521 466.506 250.522 466.507 250.523C466.508 250.524 466.508 250.524 466.509 250.524C466.51 250.525 466.511 250.525 466.512 250.525C466.636 251.065 466.699 251.618 466.7 252.173Z" fill="#14ABDE"/>
<path opacity="0.1" d="M466.7 252.173C466.7 253.612 466.272 255.015 465.476 256.191C464.68 257.367 463.553 258.26 462.251 258.747C460.948 259.233 459.532 259.291 458.197 258.91C456.862 258.53 455.672 257.732 454.79 256.623L454.784 256.616C454.659 256.076 454.596 255.523 454.595 254.968C454.595 253.53 455.023 252.127 455.819 250.95C456.615 249.774 457.742 248.881 459.044 248.395C460.347 247.908 461.763 247.851 463.098 248.231C464.433 248.611 465.623 249.409 466.505 250.518C466.505 250.519 466.505 250.52 466.505 250.521C466.506 250.521 466.506 250.522 466.507 250.523C466.508 250.524 466.508 250.524 466.509 250.524C466.51 250.525 466.511 250.525 466.512 250.525C466.636 251.065 466.699 251.618 466.7 252.173Z" fill="black"/>
<path d="M462.665 263.35C466.379 263.35 469.39 260.223 469.39 256.365C469.39 252.507 466.379 249.379 462.665 249.379C458.951 249.379 455.94 252.507 455.94 256.365C455.94 260.223 458.951 263.35 462.665 263.35Z" fill="#14ABDE"/>
<path d="M466.7 305.263C466.7 306.701 466.272 308.104 465.476 309.28C464.68 310.456 463.553 311.349 462.251 311.836C460.948 312.322 459.532 312.38 458.197 312C456.862 311.62 455.672 310.821 454.79 309.712L454.784 309.705C454.141 308.895 453.682 307.945 453.441 306.926C453.201 305.906 453.184 304.843 453.393 303.816C453.603 302.789 454.032 301.824 454.65 300.993C455.267 300.163 456.057 299.487 456.961 299.017C457.864 298.547 458.858 298.294 459.869 298.278C460.879 298.262 461.88 298.483 462.797 298.924C463.714 299.365 464.524 300.015 465.166 300.826C465.808 301.636 466.265 302.587 466.505 303.607C466.505 303.608 466.505 303.609 466.505 303.61C466.506 303.611 466.506 303.611 466.507 303.612C466.508 303.613 466.508 303.613 466.509 303.614C466.51 303.614 466.511 303.614 466.512 303.614C466.636 304.154 466.699 304.707 466.7 305.263Z" fill="#14ABDE"/>
<path opacity="0.1" d="M466.7 305.263C466.7 306.701 466.272 308.104 465.476 309.28C464.68 310.456 463.553 311.349 462.251 311.836C460.948 312.322 459.532 312.38 458.197 312C456.862 311.62 455.672 310.821 454.79 309.712L454.784 309.705C454.659 309.165 454.596 308.612 454.595 308.057C454.595 306.619 455.023 305.216 455.819 304.039C456.615 302.863 457.742 301.97 459.044 301.484C460.347 300.997 461.763 300.94 463.098 301.32C464.433 301.7 465.623 302.498 466.505 303.607C466.505 303.608 466.505 303.609 466.505 303.61C466.506 303.611 466.506 303.611 466.507 303.612C466.508 303.613 466.508 303.613 466.509 303.614C466.51 303.614 466.511 303.614 466.512 303.614C466.636 304.154 466.699 304.707 466.7 305.263Z" fill="black"/>
<path d="M462.665 316.439C466.379 316.439 469.39 313.312 469.39 309.454C469.39 305.596 466.379 302.468 462.665 302.468C458.951 302.468 455.94 305.596 455.94 309.454C455.94 313.312 458.951 316.439 462.665 316.439Z" fill="#14ABDE"/>
<path d="M349.689 33.53H314.72V69.8541H349.689V33.53Z" fill="#F0F0F0"/>
<path d="M451.233 60.0746C449.637 60.0746 448.077 59.5829 446.75 58.6619C445.423 57.7408 444.388 56.4316 443.777 54.8999C443.167 53.3682 443.007 51.6828 443.318 50.0567C443.63 48.4307 444.398 46.9371 445.527 45.7648C446.655 44.5924 448.093 43.7941 449.659 43.4706C451.224 43.1472 452.847 43.3132 454.321 43.9477C455.796 44.5821 457.056 45.6565 457.943 47.035C458.829 48.4135 459.303 50.0342 459.303 51.6921C459.3 53.9145 458.449 56.0452 456.936 57.6166C455.424 59.1881 453.372 60.0721 451.233 60.0746ZM451.233 44.7067C449.903 44.7067 448.603 45.1163 447.497 45.8839C446.391 46.6515 445.529 47.7425 445.02 49.0189C444.511 50.2953 444.378 51.6998 444.637 53.0549C444.897 54.4099 445.537 55.6546 446.478 56.6315C447.418 57.6084 448.616 58.2737 449.921 58.5433C451.225 58.8128 452.578 58.6745 453.806 58.1458C455.035 57.617 456.085 56.7217 456.824 55.573C457.563 54.4242 457.958 53.0737 457.958 51.6921C457.956 49.8401 457.246 48.0645 455.986 46.755C454.725 45.4454 453.016 44.7088 451.233 44.7067Z" fill="#3F3D56"/>
<path d="M273.699 176.731H256.214V158.569H273.699V176.731ZM257.559 175.334H272.354V159.966H257.559V175.334Z" fill="#3F3D56"/>
<path d="M540 312.248H522.516V294.086H540V312.248ZM523.861 310.851H538.655V295.483H523.861V310.851Z" fill="#3F3D56"/>
<path d="M195.02 190.469L198.021 192.147L208.231 197.863L224.713 207.088L234.319 188.576C235.223 186.836 235.789 184.929 235.983 182.962C236.177 180.995 235.996 179.008 235.45 177.114C234.903 175.22 234.003 173.457 232.8 171.925C231.597 170.393 230.115 169.122 228.439 168.186C224.856 166.177 220.752 165.4 216.718 165.969C212.684 166.537 208.928 168.422 205.99 171.35L205.985 171.355C204.54 172.797 203.321 174.464 202.371 176.297L195.02 190.469Z" fill="#2F2E41"/>
<path d="M240.007 379.264L237.994 402.273L230.442 403.319L225.408 377.172L240.007 379.264Z" fill="#FFB8B8"/>
<path d="M228.428 403.319C228.428 403.319 237.994 398.09 240.008 402.273C240.008 402.273 238.497 414.824 244.539 416.393C250.58 417.962 253.097 428.944 244.539 429.99C235.98 431.036 230.442 427.898 227.422 427.898C224.401 427.898 227.422 416.916 227.422 416.916L228.428 403.319Z" fill="#2F2E41"/>
<path d="M179.092 379.264L181.106 402.273L188.657 403.319L193.691 377.172L179.092 379.264Z" fill="#FFB8B8"/>
<path d="M190.671 403.319C190.671 403.319 181.105 398.09 179.092 402.273C179.092 402.273 180.602 414.824 174.561 416.393C168.52 417.962 166.002 428.944 174.561 429.99C183.119 431.036 188.657 427.898 191.678 427.898C194.698 427.898 191.678 416.916 191.678 416.916L190.671 403.319Z" fill="#2F2E41"/>
<path d="M220.373 194.663C227.603 194.663 233.463 188.575 233.463 181.066C233.463 173.557 227.603 167.47 220.373 167.47C213.144 167.47 207.284 173.557 207.284 181.066C207.284 188.575 213.144 194.663 220.373 194.663Z" fill="#FFB8B8"/>
<path d="M178.588 207.737L189.16 224.994L201.746 223.948L222.387 225.517C222.387 225.517 224.336 221.469 225.926 217.531C226.797 215.565 227.467 213.509 227.925 211.397C228.429 207.737 221.38 204.076 221.38 204.076C221.38 204.076 221.103 204.024 220.64 203.909C220.026 203.757 219.08 203.506 218.043 203.14C215.702 202.314 212.887 200.912 212.319 198.846C211.312 195.186 218.863 189.956 218.863 189.956L209.801 181.066C209.801 181.066 201.751 192.681 191.975 195.327C191.408 195.483 190.833 195.605 190.253 195.693C190.223 195.698 190.198 195.704 190.167 195.709C179.595 197.278 178.588 207.737 178.588 207.737Z" fill="#FFB8B8"/>
<path d="M184.126 203.03L178.588 207.737C178.588 207.737 174.057 230.223 175.568 236.499C177.078 242.774 175.064 248.526 175.064 249.572C175.064 250.618 170.533 289.839 170.533 289.839C170.533 289.839 161.471 310.757 171.037 308.666C180.602 306.574 177.078 285.656 177.078 285.656L188.657 249.05V218.196L184.126 203.03Z" fill="#FFB8B8"/>
<path d="M223.898 207.214L227.925 210.351L229.939 254.279L245.042 291.931C245.042 291.931 256.117 310.234 249.069 310.757C242.021 311.28 237.49 291.931 237.49 291.931L223.898 255.848L221.884 220.81L223.898 207.214Z" fill="#FFB8B8"/>
<path d="M198.726 210.351C198.726 210.351 208.794 217.673 224.904 215.058C224.904 215.058 229.435 224.471 226.918 229.7C224.401 234.93 229.939 247.481 230.946 249.049C231.952 250.618 243.532 283.041 247.559 318.079C251.587 353.116 262.662 377.172 253.097 380.309C243.532 383.447 223.897 387.108 221.884 383.97C219.87 380.832 216.849 302.913 216.849 302.913L211.312 332.721C211.312 332.721 218.863 383.447 213.325 384.493C207.788 385.539 173.05 382.401 174.057 376.126C175.064 369.851 185.133 336.905 185.133 336.905C185.133 336.905 184.629 271.013 194.698 258.463C194.698 258.463 198.726 251.664 193.188 242.774C187.65 233.884 188.154 219.764 188.154 219.764C188.154 219.764 192.181 219.764 198.726 210.351Z" fill="#2F2E41"/>
<path d="M190.253 195.693L198.726 215.058L200.739 214.012L191.974 195.327L190.253 195.693Z" fill="#2F2E41"/>
<path d="M218.043 203.14L224.401 217.673L225.926 217.531L225.408 215.058L220.64 203.909C220.026 203.757 219.08 203.506 218.043 203.14Z" fill="#2F2E41"/>
<path d="M198.021 192.147C198.505 193.765 199.438 195.199 200.703 196.268C201.968 197.338 203.508 197.996 205.131 198.16C206.755 198.324 208.388 197.987 209.828 197.191C211.268 196.395 212.449 195.175 213.225 193.685C206.856 185.035 212.318 179.602 222.664 175.492C223.443 173.989 223.775 172.28 223.616 170.581C223.457 168.883 222.816 167.272 221.773 165.953C218.921 165.574 216.024 165.862 213.294 166.796C210.563 167.73 208.068 169.285 205.99 171.35L205.985 171.355L198.635 185.516C198.112 186.523 197.788 187.629 197.682 188.767C197.577 189.906 197.692 191.056 198.021 192.147Z" fill="#2F2E41"/>
<path d="M212.57 185.773C213.543 185.773 214.332 184.368 214.332 182.635C214.332 180.902 213.543 179.497 212.57 179.497C211.597 179.497 210.808 180.902 210.808 182.635C210.808 184.368 211.597 185.773 212.57 185.773Z" fill="#FFB8B8"/>
<path d="M217.821 177.515L232.954 184.638L235.728 178.279C235.25 175.955 234.25 173.781 232.808 171.935L222.392 167.035L217.821 177.515Z" fill="#2F2E41"/>
<path d="M254.197 317.836C257.911 317.836 260.922 314.709 260.922 310.851C260.922 306.993 257.911 303.865 254.197 303.865C250.483 303.865 247.472 306.993 247.472 310.851C247.472 314.709 250.483 317.836 254.197 317.836Z" fill="#14ABDE"/>
<path d="M38.302 359.362C40.7292 359.362 42.6969 357.318 42.6969 354.797C42.6969 352.276 40.7292 350.232 38.302 350.232C35.8748 350.232 33.9071 352.276 33.9071 354.797C33.9071 357.318 35.8748 359.362 38.302 359.362Z" fill="#FF6584"/>
<path d="M60.5063 378.59H59.1613V430.57H60.5063V378.59Z" fill="#3F3D56"/>
<path d="M59.834 385.941C63.7421 385.941 66.9103 382.65 66.9103 378.59C66.9103 374.531 63.7421 371.24 59.834 371.24C55.9258 371.24 52.7576 374.531 52.7576 378.59C52.7576 382.65 55.9258 385.941 59.834 385.941Z" fill="#3F3D56"/>
<path d="M59.8339 410.626C59.8339 410.626 58.823 388.041 38.0994 390.666L59.8339 410.626Z" fill="#3F3D56"/>
</svg>
